<?xml version="1.0" encoding="UTF-8" standalone="no"?><!DOCTYPE svg PUBLIC "-//W3C//DTD SVG 1.1//EN" "http://www.w3.org/Graphics/SVG/1.1/DTD/svg11.dtd"><svg width="100%" height="100%" viewBox="0 0 1250 1407" version="1.1" xmlns="http://www.w3.org/2000/svg" xmlns:xlink="http://www.w3.org/1999/xlink" xml:space="preserve" xmlns:serif="http://www.serif.com/" style="fill-rule:evenodd;clip-rule:evenodd;"><g><rect x="0" y="0" width="1250" height="1406.25" style="fill:#fff;"/><rect x="250" y="312.5" width="750" height="843.75" style="fill:#e5ecf6;"/><g><g><g><path d="M446.094,312.5l-0,843.75" style="fill:none;fill-rule:nonzero;stroke:#fff;stroke-width:3.13px;"/><path d="M667.656,312.5l0,843.75" style="fill:none;fill-rule:nonzero;stroke:#fff;stroke-width:3.13px;"/><path d="M889.219,312.5l-0,843.75" style="fill:none;fill-rule:nonzero;stroke:#fff;stroke-width:3.13px;"/></g><g><path d="M250,1116.06l750,-0.001" style="fill:none;fill-rule:nonzero;stroke:#fff;stroke-width:3.13px;"/><path d="M250,915.188l750,-0" style="fill:none;fill-rule:nonzero;stroke:#fff;stroke-width:3.13px;"/><path d="M250,714.281l750,0" style="fill:none;fill-rule:nonzero;stroke:#fff;stroke-width:3.13px;"/><path d="M250,513.406l750,0" style="fill:none;fill-rule:nonzero;stroke:#fff;stroke-width:3.13px;"/></g></g><g><g><g><g><path d="M963.031,675.719c0,5.143 -4.232,9.375 -9.375,9.375c-5.143,-0 -9.375,-4.232 -9.375,-9.375c0,-5.143 4.232,-9.375 9.375,-9.375c5.143,-0 9.375,4.232 9.375,9.375Z" style="fill:#636efa;fill-rule:nonzero;"/><path d="M528.25,624.813c0,5.142 -4.232,9.375 -9.375,9.375c-5.143,-0 -9.375,-4.233 -9.375,-9.375c0,-5.143 4.232,-9.375 9.375,-9.375c5.143,-0 9.375,4.232 9.375,9.375Z" style="fill:#636efa;fill-rule:nonzero;"/><path d="M842.063,1098.88c-0,5.143 -4.233,9.375 -9.375,9.375c-5.143,0 -9.375,-4.232 -9.375,-9.375c-0,-5.143 4.232,-9.375 9.375,-9.375c5.142,0 9.375,4.232 9.375,9.375Z" style="fill:#636efa;fill-rule:nonzero;"/><path d="M962.594,771.313c-0,5.142 -4.232,9.375 -9.375,9.375c-5.143,-0 -9.375,-4.233 -9.375,-9.375c-0,-5.143 4.232,-9.375 9.375,-9.375c5.143,-0 9.375,4.232 9.375,9.375Z" style="fill:#636efa;fill-rule:nonzero;"/><path d="M639.25,859.656c0,5.143 -4.232,9.375 -9.375,9.375c-5.143,0 -9.375,-4.232 -9.375,-9.375c0,-5.143 4.232,-9.375 9.375,-9.375c5.143,0 9.375,4.232 9.375,9.375Z" style="fill:#636efa;fill-rule:nonzero;"/></g><g><g><text x="917.062px" y="651.5px" style="font-family:'Lato-Regular', 'Lato', sans-serif;font-size:37.5px;fill:#2a3f5f;">1</text></g><g><text x="482.281px" y="600.594px" style="font-family:'Lato-Regular', 'Lato', sans-serif;font-size:37.5px;fill:#2a3f5f;">3</text></g><g><text x="796.094px" y="1074.66px" style="font-family:'Lato-Regular', 'Lato', sans-serif;font-size:37.5px;fill:#2a3f5f;">5</text></g><g><text x="916.625px" y="747.094px" style="font-family:'Lato-Regular', 'Lato', sans-serif;font-size:37.5px;fill:#2a3f5f;">7</text></g><g><text x="571.531px" y="835.438px" style="font-family:'Lato-Regular', 'Lato', sans-serif;font-size:37.5px;fill:#2a3f5f;">10</text></g></g></g><g><g><path d="M684.281,493.5c0,5.143 -4.232,9.375 -9.375,9.375c-5.143,0 -9.375,-4.232 -9.375,-9.375c0,-5.143 4.232,-9.375 9.375,-9.375c5.143,0 9.375,4.232 9.375,9.375Z" style="fill:#ef553b;fill-rule:nonzero;"/><path d="M614.156,599.75c0,5.143 -4.232,9.375 -9.375,9.375c-5.143,0 -9.375,-4.232 -9.375,-9.375c0,-5.143 4.232,-9.375 9.375,-9.375c5.143,0 9.375,4.232 9.375,9.375Z" style="fill:#ef553b;fill-rule:nonzero;"/><path d="M537.781,402.031c0,5.143 -4.232,9.375 -9.375,9.375c-5.143,0 -9.375,-4.232 -9.375,-9.375c0,-5.143 4.232,-9.375 9.375,-9.375c5.143,0 9.375,4.232 9.375,9.375Z" style="fill:#ef553b;fill-rule:nonzero;"/><path d="M302.813,642.25c-0,5.143 -4.233,9.375 -9.375,9.375c-5.143,0 -9.375,-4.232 -9.375,-9.375c-0,-5.143 4.232,-9.375 9.375,-9.375c5.142,0 9.375,4.232 9.375,9.375Z" style="fill:#ef553b;fill-rule:nonzero;"/><path d="M579.688,382.688c-0,5.142 -4.233,9.375 -9.375,9.375c-5.143,-0 -9.375,-4.233 -9.375,-9.375c-0,-5.143 4.232,-9.375 9.375,-9.375c5.142,-0 9.375,4.232 9.375,9.375Z" style="fill:#ef553b;fill-rule:nonzero;"/></g><g><g><text x="638.313px" y="469.281px" style="font-family:'Lato-Regular', 'Lato', sans-serif;font-size:37.5px;fill:#2a3f5f;">2</text></g><g><text x="568.188px" y="575.531px" style="font-family:'Lato-Regular', 'Lato', sans-serif;font-size:37.5px;fill:#2a3f5f;">4</text></g><g><text x="491.813px" y="377.813px" style="font-family:'Lato-Regular', 'Lato', sans-serif;font-size:37.5px;fill:#2a3f5f;">6</text></g><g><text x="256.844px" y="618.031px" style="font-family:'Lato-Regular', 'Lato', sans-serif;font-size:37.5px;fill:#2a3f5f;">8</text></g><g><text x="533.719px" y="358.469px" style="font-family:'Lato-Regular', 'Lato', sans-serif;font-size:37.5px;fill:#2a3f5f;">9</text></g></g></g></g></g><g><g><text x="414.819px" y="1196.88px" style="font-family:'Lato-Regular', 'Lato', sans-serif;font-size:37.5px;fill:#2a3f5f;">10k</text></g><g><text x="636.381px" y="1196.88px" style="font-family:'Lato-Regular', 'Lato', sans-serif;font-size:37.5px;fill:#2a3f5f;">20k</text></g><g><text x="857.944px" y="1196.88px" style="font-family:'Lato-Regular', 'Lato', sans-serif;font-size:37.5px;fill:#2a3f5f;">30k</text></g></g><g><g><text x="206.075px" y="1129.19px" style="font-family:'Lato-Regular', 'Lato', sans-serif;font-size:37.5px;fill:#2a3f5f;">5k</text></g><g><text x="184.325px" y="928.313px" style="font-family:'Lato-Regular', 'Lato', sans-serif;font-size:37.5px;fill:#2a3f5f;">10k</text></g><g><text x="184.325px" y="727.406px" style="font-family:'Lato-Regular', 'Lato', sans-serif;font-size:37.5px;fill:#2a3f5f;">15k</text></g><g><text x="184.325px" y="526.531px" style="font-family:'Lato-Regular', 'Lato', sans-serif;font-size:37.5px;fill:#2a3f5f;">20k</text></g><g><text x="184.325px" y="325.625px" style="font-family:'Lato-Regular', 'Lato', sans-serif;font-size:37.5px;fill:#2a3f5f;">25k</text></g></g></g><g><path d="M250,658.969l750,-0" style="fill:none;stroke:#2a3f5f;stroke-width:6.25px;stroke-dasharray:28.13,28.13;"/><path d="M523.625,1156.25l0,-843.75" style="fill:none;stroke:#2a3f5f;stroke-width:6.25px;stroke-dasharray:28.13,28.13;"/><path d="M406.156,1156.25l0,-843.75" style="fill:none;stroke:#2a3f5f;stroke-width:6.25px;stroke-dasharray:28.13,28.13;"/><rect x="250" y="658.969" width="750" height="497.281" style="fill:#636efa;fill-opacity:0.2;"/><rect x="523.625" y="312.5" width="476.375" height="346.469" style="fill:#ef553b;fill-opacity:0.2;"/><rect x="406.156" y="312.5" width="117.469" height="346.469" style="fill:#636efa;fill-opacity:0.2;"/><rect x="250" y="312.5" width="156.156" height="346.469" style="fill:#ef553b;fill-opacity:0.2;"/></g><g><rect x="371.875" y="221.875" width="628.125" height="90.625" style="fill:#fff;"/><g><g transform="matrix(43.75,0,0,43.75,507.472,278.75)"><path d="M0.517,-0.432l-0.001,0.304c0,0.021 0.006,0.037 0.016,0.048c0.01,0.01 0.023,0.015 0.039,0.015c0.01,0 0.018,-0.001 0.025,-0.004c0.007,-0.002 0.013,-0.005 0.018,-0.008c0.005,-0.003 0.009,-0.006 0.012,-0.008c0.004,-0.003 0.007,-0.004 0.009,-0.004c0.003,0 0.006,0.001 0.008,0.002c0.002,0.001 0.003,0.004 0.005,0.007l0.026,0.042c-0.015,0.014 -0.033,0.026 -0.055,0.034c-0.022,0.008 -0.044,0.012 -0.068,0.012c-0.039,0 -0.07,-0.011 -0.091,-0.033c-0.022,-0.023 -0.033,-0.055 -0.033,-0.097l0,-0.31l-0.234,0l-0,0.432l-0.09,-0l0,-0.431l-0.056,-0.006c-0.007,-0.002 -0.012,-0.004 -0.017,-0.008c-0.004,-0.003 -0.007,-0.008 -0.007,-0.015l0,-0.036l0.08,-0.001l0,-0.048c0,-0.029 0.005,-0.055 0.013,-0.078c0.008,-0.022 0.02,-0.041 0.035,-0.057c0.015,-0.015 0.033,-0.027 0.054,-0.035c0.022,-0.008 0.046,-0.012 0.072,-0.012c0.023,0 0.044,0.003 0.063,0.01l-0.002,0.045c-0.001,0.008 -0.005,0.012 -0.013,0.013c-0.008,0 -0.019,0.001 -0.033,0.001c-0.015,-0 -0.029,0.002 -0.042,0.006c-0.012,0.004 -0.023,0.01 -0.032,0.019c-0.009,0.009 -0.016,0.021 -0.021,0.035c-0.005,0.015 -0.007,0.033 -0.007,0.055l-0,0.046l0.24,0l0.02,-0.157c0.002,-0.005 0.004,-0.009 0.008,-0.012c0.003,-0.003 0.008,-0.005 0.013,-0.005l0.045,-0l0,0.174l0.146,0l0,0.065l-0.146,-0Z" style="fill:#2a3f5f;fill-rule:nonzero;"/></g><g transform="matrix(43.75,0,0,43.75,507.472,278.75)"></g><g transform="matrix(43.75,0,0,43.75,522.276,278.75)"></g><text x="378.125px" y="278.75px" style="font-family:'Lato-Regular', 'Lato', sans-serif;font-size:43.75px;fill:#2a3f5f;">v<tspan x="400.087px " y="278.75px ">e</tspan>rkau</text><g><g><text x="687.451px" y="281.813px" style="font-family:'Lato-Regular', 'Lato', sans-serif;font-size:37.5px;fill:#2a3f5f;">F<tspan x="705.995px " y="281.813px ">a</tspan>lse</text><g><g><g><path d="M634.326,267.188c0,5.142 -4.232,9.375 -9.375,9.375c-5.143,-0 -9.375,-4.233 -9.375,-9.375c0,-5.143 4.232,-9.375 9.375,-9.375c5.143,-0 9.375,4.232 9.375,9.375Z" style="fill:#636efa;fill-rule:nonzero;"/></g></g></g><rect x="562.451" y="237.5" width="214.893" height="59.375" style="fill-opacity:0;"/></g></g><g><g><text x="910.156px" y="281.813px" style="font-family:'Lato-Regular', 'Lato', sans-serif;font-size:37.5px;fill:#2a3f5f;">T<tspan x="928.175px " y="281.813px ">r</tspan>ue</text><g><g><g><path d="M857.031,267.188c0,5.142 -4.232,9.375 -9.375,9.375c-5.143,-0 -9.375,-4.233 -9.375,-9.375c0,-5.143 4.232,-9.375 9.375,-9.375c5.143,-0 9.375,4.232 9.375,9.375Z" style="fill:#ef553b;fill-rule:nonzero;"/></g></g></g><rect x="785.156" y="237.5" width="205.225" height="59.375" style="fill-opacity:0;"/></g></g></g></g><g><g transform="matrix(53.125,0,0,53.125,744.333,156.25)"><path d="M0.541,-0l-0.09,-0l0,-0.432l-0.261,0l0,0.304c0,0.021 0.006,0.037 0.016,0.048c0.01,0.01 0.024,0.015 0.04,0.015c0.009,0 0.017,-0.001 0.024,-0.004c0.007,-0.002 0.013,-0.005 0.018,-0.008c0.005,-0.003 0.009,-0.006 0.013,-0.008c0.003,-0.003 0.006,-0.004 0.009,-0.004c0.005,0 0.009,0.003 0.012,0.009l0.026,0.042c-0.015,0.014 -0.033,0.026 -0.055,0.034c-0.022,0.008 -0.044,0.012 -0.067,0.012c-0.04,0 -0.071,-0.011 -0.092,-0.033c-0.022,-0.023 -0.033,-0.055 -0.033,-0.097l0,-0.31l-0.061,0c-0.005,0 -0.009,-0.002 -0.013,-0.005c-0.004,-0.003 -0.006,-0.008 -0.006,-0.015l0,-0.035l0.083,-0.011l0.021,-0.156c0.001,-0.005 0.003,-0.009 0.007,-0.012c0.003,-0.003 0.008,-0.005 0.013,-0.005l0.045,0l0,0.175l0.35,-0.001l0,0.497Zm0.022,-0.669c0,0.009 -0.001,0.017 -0.005,0.024c-0.003,0.008 -0.008,0.014 -0.014,0.02c-0.006,0.006 -0.012,0.01 -0.02,0.013c-0.008,0.004 -0.016,0.005 -0.025,0.005c-0.008,0 -0.016,-0.001 -0.024,-0.005c-0.007,-0.003 -0.014,-0.007 -0.02,-0.013c-0.005,-0.006 -0.01,-0.012 -0.013,-0.02c-0.003,-0.007 -0.005,-0.015 -0.005,-0.024c-0,-0.009 0.002,-0.017 0.005,-0.025c0.003,-0.008 0.008,-0.014 0.013,-0.02c0.006,-0.006 0.013,-0.011 0.02,-0.014c0.008,-0.003 0.016,-0.005 0.024,-0.005c0.009,0 0.017,0.002 0.025,0.005c0.008,0.003 0.014,0.008 0.02,0.014c0.006,0.006 0.011,0.012 0.014,0.02c0.004,0.008 0.005,0.016 0.005,0.025Z" style="fill:#2a3f5f;fill-rule:nonzero;"/></g><g transform="matrix(53.125,0,0,53.125,744.333,156.25)"></g><g transform="matrix(53.125,0,0,53.125,763.935,156.25)"></g><text x="62.5px" y="156.25px" style="font-family:'Lato-Regular', 'Lato', sans-serif;font-size:53.125px;fill:#2a3f5f;">K<tspan x="96.341px " y="156.25px ">ü</tspan>nstliche D<tspan x="359.309px 385.367px 404.28px " y="156.25px 156.25px 156.25px ">ate</tspan>n: <tspan x="486.942px 518.923px " y="156.25px 156.25px ">Ve</tspan>rkaufsak<tspan x="777.058px " y="156.25px ">o</tspan>n im <tspan x="918.689px 953.991px 983.608px 1002.52px " y="156.25px 156.25px 156.25px 156.25px ">Auto</tspan>haus</text></g><g><text x="430.903px" y="1283.75px" style="font-family:'Lato-Regular', 'Lato', sans-serif;font-size:43.75px;fill:#2a3f5f;">Kilome<tspan x="564.45px 580.025px 603.125px 618.919px " y="1283.75px 1283.75px 1283.75px 1283.75px ">ters</tspan>tand [km<tspan x="805.709px " y="1283.75px ">]</tspan></text></g><g><g transform="matrix(-3.82857e-16,-1,1,-3.82857e-16,-627.598,841.152)"><text x="-1.351px" y="734.375px" style="font-family:'Lato-Regular', 'Lato', sans-serif;font-size:43.75px;fill:#2a3f5f;">P<tspan x="24.505px 39.534px " y="734.375px 734.375px ">re</tspan>is [EUR]</text></g></g></g><rect x="0" y="0" width="1250" height="1406.25" style="fill:none;stroke:#000;stroke-width:8.33px;stroke-linecap:round;stroke-linejoin:round;stroke-miterlimit:1.5;"/></svg>