<?xml version="1.0" encoding="UTF-8" standalone="no"?>
<!DOCTYPE svg PUBLIC "-//W3C//DTD SVG 1.1//EN"
 "http://www.w3.org/Graphics/SVG/1.1/DTD/svg11.dtd">
<!-- Generated by graphviz version 2.50.0 (0)
 -->
<!-- Title: Tree Pages: 1 -->
<svg width="357pt" height="373pt"
 viewBox="0.00 0.00 357.00 373.00" xmlns="http://www.w3.org/2000/svg" xmlns:xlink="http://www.w3.org/1999/xlink">
<g id="graph0" class="graph" transform="scale(1 1) rotate(0) translate(4 369)">
<title>Tree</title>
<polygon fill="white" stroke="transparent" points="-4,4 -4,-369 353,-369 353,4 -4,4"/>
<!-- 0 -->
<g id="node1" class="node">
<title>0</title>
<polygon fill="#ffffff" stroke="black" points="212.5,-365 52.5,-365 52.5,-297 212.5,-297 212.5,-365"/>
<text text-anchor="middle" x="132.5" y="-349.8" font-family="Helvetica,sans-Serif" font-size="14.00">Preis [EUR] &lt;= 16376.5</text>
<text text-anchor="middle" x="132.5" y="-334.8" font-family="Helvetica,sans-Serif" font-size="14.00">gini = 0.5</text>
<text text-anchor="middle" x="132.5" y="-319.8" font-family="Helvetica,sans-Serif" font-size="14.00">samples = 10</text>
<text text-anchor="middle" x="132.5" y="-304.8" font-family="Helvetica,sans-Serif" font-size="14.00">value = [5, 5]</text>
</g>
<!-- 1 -->
<g id="node2" class="node">
<title>1</title>
<polygon fill="#e58139" stroke="black" points="95,-253.5 0,-253.5 0,-200.5 95,-200.5 95,-253.5"/>
<text text-anchor="middle" x="47.5" y="-238.3" font-family="Helvetica,sans-Serif" font-size="14.00">gini = 0.0</text>
<text text-anchor="middle" x="47.5" y="-223.3" font-family="Helvetica,sans-Serif" font-size="14.00">samples = 4</text>
<text text-anchor="middle" x="47.5" y="-208.3" font-family="Helvetica,sans-Serif" font-size="14.00">value = [4, 0]</text>
</g>
<!-- 0&#45;&gt;1 -->
<g id="edge1" class="edge">
<title>0&#45;&gt;1</title>
<path fill="none" stroke="black" d="M104.9,-296.88C95.46,-285.56 84.9,-272.88 75.43,-261.52"/>
<polygon fill="black" stroke="black" points="77.86,-258.96 68.77,-253.52 72.48,-263.44 77.86,-258.96"/>
<text text-anchor="middle" x="66.5" y="-274.72" font-family="Helvetica,sans-Serif" font-size="14.00">True</text>
</g>
<!-- 2 -->
<g id="node3" class="node">
<title>2</title>
<polygon fill="#61b1ea" stroke="black" points="323.5,-261 113.5,-261 113.5,-193 323.5,-193 323.5,-261"/>
<text text-anchor="middle" x="218.5" y="-245.8" font-family="Helvetica,sans-Serif" font-size="14.00">Kilometerstand [km] &lt;= 13500.0</text>
<text text-anchor="middle" x="218.5" y="-230.8" font-family="Helvetica,sans-Serif" font-size="14.00">gini = 0.278</text>
<text text-anchor="middle" x="218.5" y="-215.8" font-family="Helvetica,sans-Serif" font-size="14.00">samples = 6</text>
<text text-anchor="middle" x="218.5" y="-200.8" font-family="Helvetica,sans-Serif" font-size="14.00">value = [1, 5]</text>
</g>
<!-- 0&#45;&gt;2 -->
<g id="edge2" class="edge">
<title>0&#45;&gt;2</title>
<path fill="none" stroke="black" d="M160.42,-296.88C167.93,-287.98 176.14,-278.24 183.97,-268.96"/>
<polygon fill="black" stroke="black" points="186.65,-271.2 190.42,-261.3 181.3,-266.69 186.65,-271.2"/>
<text text-anchor="middle" x="192.54" y="-282.51" font-family="Helvetica,sans-Serif" font-size="14.00">False</text>
</g>
<!-- 3 -->
<g id="node4" class="node">
<title>3</title>
<polygon fill="#ffffff" stroke="black" points="236,-157 33,-157 33,-89 236,-89 236,-157"/>
<text text-anchor="middle" x="134.5" y="-141.8" font-family="Helvetica,sans-Serif" font-size="14.00">Kilometerstand [km] &lt;= 8198.0</text>
<text text-anchor="middle" x="134.5" y="-126.8" font-family="Helvetica,sans-Serif" font-size="14.00">gini = 0.5</text>
<text text-anchor="middle" x="134.5" y="-111.8" font-family="Helvetica,sans-Serif" font-size="14.00">samples = 2</text>
<text text-anchor="middle" x="134.5" y="-96.8" font-family="Helvetica,sans-Serif" font-size="14.00">value = [1, 1]</text>
</g>
<!-- 2&#45;&gt;3 -->
<g id="edge3" class="edge">
<title>2&#45;&gt;3</title>
<path fill="none" stroke="black" d="M191.23,-192.88C183.97,-184.07 176.03,-174.43 168.46,-165.24"/>
<polygon fill="black" stroke="black" points="170.98,-162.79 161.92,-157.3 165.58,-167.24 170.98,-162.79"/>
</g>
<!-- 6 -->
<g id="node7" class="node">
<title>6</title>
<polygon fill="#399de5" stroke="black" points="349,-149.5 254,-149.5 254,-96.5 349,-96.5 349,-149.5"/>
<text text-anchor="middle" x="301.5" y="-134.3" font-family="Helvetica,sans-Serif" font-size="14.00">gini = 0.0</text>
<text text-anchor="middle" x="301.5" y="-119.3" font-family="Helvetica,sans-Serif" font-size="14.00">samples = 4</text>
<text text-anchor="middle" x="301.5" y="-104.3" font-family="Helvetica,sans-Serif" font-size="14.00">value = [0, 4]</text>
</g>
<!-- 2&#45;&gt;6 -->
<g id="edge6" class="edge">
<title>2&#45;&gt;6</title>
<path fill="none" stroke="black" d="M245.45,-192.88C254.67,-181.56 264.98,-168.88 274.22,-157.52"/>
<polygon fill="black" stroke="black" points="277.14,-159.49 280.73,-149.52 271.71,-155.07 277.14,-159.49"/>
</g>
<!-- 4 -->
<g id="node5" class="node">
<title>4</title>
<polygon fill="#399de5" stroke="black" points="126,-53 31,-53 31,0 126,0 126,-53"/>
<text text-anchor="middle" x="78.5" y="-37.8" font-family="Helvetica,sans-Serif" font-size="14.00">gini = 0.0</text>
<text text-anchor="middle" x="78.5" y="-22.8" font-family="Helvetica,sans-Serif" font-size="14.00">samples = 1</text>
<text text-anchor="middle" x="78.5" y="-7.8" font-family="Helvetica,sans-Serif" font-size="14.00">value = [0, 1]</text>
</g>
<!-- 3&#45;&gt;4 -->
<g id="edge4" class="edge">
<title>3&#45;&gt;4</title>
<path fill="none" stroke="black" d="M114.91,-88.95C109.76,-80.26 104.2,-70.86 99,-62.09"/>
<polygon fill="black" stroke="black" points="101.86,-60.06 93.75,-53.24 95.84,-63.62 101.86,-60.06"/>
</g>
<!-- 5 -->
<g id="node6" class="node">
<title>5</title>
<polygon fill="#e58139" stroke="black" points="239,-53 144,-53 144,0 239,0 239,-53"/>
<text text-anchor="middle" x="191.5" y="-37.8" font-family="Helvetica,sans-Serif" font-size="14.00">gini = 0.0</text>
<text text-anchor="middle" x="191.5" y="-22.8" font-family="Helvetica,sans-Serif" font-size="14.00">samples = 1</text>
<text text-anchor="middle" x="191.5" y="-7.8" font-family="Helvetica,sans-Serif" font-size="14.00">value = [1, 0]</text>
</g>
<!-- 3&#45;&gt;5 -->
<g id="edge5" class="edge">
<title>3&#45;&gt;5</title>
<path fill="none" stroke="black" d="M154.44,-88.95C159.73,-80.17 165.47,-70.66 170.8,-61.82"/>
<polygon fill="black" stroke="black" points="173.81,-63.61 175.98,-53.24 167.81,-59.99 173.81,-63.61"/>
</g>
</g>
</svg>
