<?xml version="1.0" encoding="UTF-8" standalone="no"?><!DOCTYPE svg PUBLIC "-//W3C//DTD SVG 1.1//EN" "http://www.w3.org/Graphics/SVG/1.1/DTD/svg11.dtd"><svg width="100%" height="100%" viewBox="0 0 1667 1875" version="1.1" xmlns="http://www.w3.org/2000/svg" xmlns:xlink="http://www.w3.org/1999/xlink" xml:space="preserve" xmlns:serif="http://www.serif.com/" style="fill-rule:evenodd;clip-rule:evenodd;"><rect x="0" y="0" width="1666.67" height="1875" style="fill:#fff;"/><g><rect x="333.333" y="416.667" width="1000" height="1125" style="fill:#e5ecf6;"/></g><g><g><g><g><path d="M594.792,416.667l-0,1125" style="fill:none;fill-rule:nonzero;stroke:#fff;stroke-width:4.17px;"/><path d="M890.208,416.667l0,1125" style="fill:none;fill-rule:nonzero;stroke:#fff;stroke-width:4.17px;"/><path d="M1185.62,416.667l0,1125" style="fill:none;fill-rule:nonzero;stroke:#fff;stroke-width:4.17px;"/></g><g><path d="M333.333,1488.08l1000,0" style="fill:none;fill-rule:nonzero;stroke:#fff;stroke-width:4.17px;"/><path d="M333.333,1220.25l1000,0" style="fill:none;fill-rule:nonzero;stroke:#fff;stroke-width:4.17px;"/><path d="M333.333,952.375l1000,0" style="fill:none;fill-rule:nonzero;stroke:#fff;stroke-width:4.17px;"/><path d="M333.333,684.542l1000,-0" style="fill:none;fill-rule:nonzero;stroke:#fff;stroke-width:4.17px;"/></g></g><g><g><g><g><path d="M1284.04,900.958c-0,6.858 -5.643,12.5 -12.5,12.5c-6.858,0 -12.5,-5.642 -12.5,-12.5c-0,-6.857 5.642,-12.5 12.5,-12.5c6.857,0 12.5,5.643 12.5,12.5Z" style="fill:#636efa;fill-rule:nonzero;"/><path d="M704.333,833.083c0,6.858 -5.642,12.5 -12.5,12.5c-6.857,0 -12.5,-5.642 -12.5,-12.5c0,-6.857 5.643,-12.5 12.5,-12.5c6.858,0 12.5,5.643 12.5,12.5Z" style="fill:#636efa;fill-rule:nonzero;"/><path d="M1122.75,1465.17c0,6.857 -5.643,12.5 -12.5,12.5c-6.857,-0 -12.5,-5.643 -12.5,-12.5c0,-6.858 5.643,-12.5 12.5,-12.5c6.857,-0 12.5,5.642 12.5,12.5Z" style="fill:#636efa;fill-rule:nonzero;"/><path d="M1283.46,1028.42c0,6.857 -5.642,12.5 -12.5,12.5c-6.857,-0 -12.5,-5.643 -12.5,-12.5c0,-6.858 5.643,-12.5 12.5,-12.5c6.858,-0 12.5,5.642 12.5,12.5Z" style="fill:#636efa;fill-rule:nonzero;"/><path d="M852.333,1146.21c0,6.858 -5.642,12.5 -12.5,12.5c-6.857,0 -12.5,-5.642 -12.5,-12.5c0,-6.857 5.643,-12.5 12.5,-12.5c6.858,0 12.5,5.643 12.5,12.5Z" style="fill:#636efa;fill-rule:nonzero;"/></g><g><g><text x="1222.75px" y="868.667px" style="font-family:'Lato-Regular', 'Lato', sans-serif;font-size:50px;fill:#2a3f5f;">1</text></g><g><text x="643.042px" y="800.792px" style="font-family:'Lato-Regular', 'Lato', sans-serif;font-size:50px;fill:#2a3f5f;">3</text></g><g><text x="1061.46px" y="1432.88px" style="font-family:'Lato-Regular', 'Lato', sans-serif;font-size:50px;fill:#2a3f5f;">5</text></g><g><text x="1222.17px" y="996.125px" style="font-family:'Lato-Regular', 'Lato', sans-serif;font-size:50px;fill:#2a3f5f;">7</text></g><g><text x="762.042px" y="1113.92px" style="font-family:'Lato-Regular', 'Lato', sans-serif;font-size:50px;fill:#2a3f5f;">10</text></g></g></g><g><g><path d="M912.375,658c0,6.857 -5.643,12.5 -12.5,12.5c-6.857,0 -12.5,-5.643 -12.5,-12.5c0,-6.857 5.643,-12.5 12.5,-12.5c6.857,0 12.5,5.643 12.5,12.5Z" style="fill:#ef553b;fill-rule:nonzero;"/><path d="M818.875,799.667c0,6.857 -5.643,12.5 -12.5,12.5c-6.857,-0 -12.5,-5.643 -12.5,-12.5c0,-6.858 5.643,-12.5 12.5,-12.5c6.857,-0 12.5,5.642 12.5,12.5Z" style="fill:#ef553b;fill-rule:nonzero;"/><path d="M717.042,536.042c-0,6.857 -5.643,12.5 -12.5,12.5c-6.858,-0 -12.5,-5.643 -12.5,-12.5c-0,-6.858 5.642,-12.5 12.5,-12.5c6.857,-0 12.5,5.642 12.5,12.5Z" style="fill:#ef553b;fill-rule:nonzero;"/><path d="M403.75,856.333c0,6.858 -5.643,12.5 -12.5,12.5c-6.857,0 -12.5,-5.642 -12.5,-12.5c0,-6.857 5.643,-12.5 12.5,-12.5c6.857,0 12.5,5.643 12.5,12.5Z" style="fill:#ef553b;fill-rule:nonzero;"/><path d="M772.917,510.25c-0,6.857 -5.643,12.5 -12.5,12.5c-6.858,0 -12.5,-5.643 -12.5,-12.5c-0,-6.857 5.642,-12.5 12.5,-12.5c6.857,0 12.5,5.643 12.5,12.5Z" style="fill:#ef553b;fill-rule:nonzero;"/></g><g><g><text x="851.083px" y="625.708px" style="font-family:'Lato-Regular', 'Lato', sans-serif;font-size:50px;fill:#2a3f5f;">2</text></g><g><text x="757.583px" y="767.375px" style="font-family:'Lato-Regular', 'Lato', sans-serif;font-size:50px;fill:#2a3f5f;">4</text></g><g><text x="655.75px" y="503.75px" style="font-family:'Lato-Regular', 'Lato', sans-serif;font-size:50px;fill:#2a3f5f;">6</text></g><g><text x="342.458px" y="824.042px" style="font-family:'Lato-Regular', 'Lato', sans-serif;font-size:50px;fill:#2a3f5f;">8</text></g><g><text x="711.625px" y="477.958px" style="font-family:'Lato-Regular', 'Lato', sans-serif;font-size:50px;fill:#2a3f5f;">9</text></g></g></g></g></g><g><g><text x="553.092px" y="1595.83px" style="font-family:'Lato-Regular', 'Lato', sans-serif;font-size:50px;fill:#2a3f5f;">10k</text></g><g><text x="848.508px" y="1595.83px" style="font-family:'Lato-Regular', 'Lato', sans-serif;font-size:50px;fill:#2a3f5f;">20k</text></g><g><text x="1143.92px" y="1595.83px" style="font-family:'Lato-Regular', 'Lato', sans-serif;font-size:50px;fill:#2a3f5f;">30k</text></g></g><g><g><text x="274.767px" y="1505.58px" style="font-family:'Lato-Regular', 'Lato', sans-serif;font-size:50px;fill:#2a3f5f;">5k</text></g><g><text x="245.767px" y="1237.75px" style="font-family:'Lato-Regular', 'Lato', sans-serif;font-size:50px;fill:#2a3f5f;">10k</text></g><g><text x="245.767px" y="969.875px" style="font-family:'Lato-Regular', 'Lato', sans-serif;font-size:50px;fill:#2a3f5f;">15k</text></g><g><text x="245.767px" y="702.042px" style="font-family:'Lato-Regular', 'Lato', sans-serif;font-size:50px;fill:#2a3f5f;">20k</text></g><g><text x="245.767px" y="434.167px" style="font-family:'Lato-Regular', 'Lato', sans-serif;font-size:50px;fill:#2a3f5f;">25k</text></g></g></g></g><g><g><path d="M333.333,878.625l1000,0" style="fill:none;stroke:#2a3f5f;stroke-width:8.33px;stroke-dasharray:37.5,37.5;"/><rect x="333.333" y="878.625" width="1000" height="663.042" style="fill:#636efa;fill-opacity:0.2;"/></g></g><g><g><rect x="495.833" y="295.833" width="837.5" height="120.833" style="fill:#fff;"/><g><g transform="matrix(58.3333,0,0,58.3333,676.629,371.667)"><path d="M0.517,-0.432l-0.001,0.304c0,0.021 0.006,0.037 0.016,0.048c0.01,0.01 0.023,0.015 0.039,0.015c0.01,0 0.018,-0.001 0.025,-0.004c0.007,-0.002 0.013,-0.005 0.018,-0.008c0.005,-0.003 0.009,-0.006 0.012,-0.008c0.004,-0.003 0.007,-0.004 0.009,-0.004c0.003,0 0.006,0.001 0.008,0.002c0.002,0.001 0.003,0.004 0.005,0.007l0.026,0.042c-0.015,0.014 -0.033,0.026 -0.055,0.034c-0.022,0.008 -0.044,0.012 -0.068,0.012c-0.039,0 -0.07,-0.011 -0.091,-0.033c-0.022,-0.023 -0.033,-0.055 -0.033,-0.097l0,-0.31l-0.234,0l-0,0.432l-0.09,-0l0,-0.431l-0.056,-0.006c-0.007,-0.002 -0.012,-0.004 -0.017,-0.008c-0.004,-0.003 -0.007,-0.008 -0.007,-0.015l0,-0.036l0.08,-0.001l0,-0.048c0,-0.029 0.005,-0.055 0.013,-0.078c0.008,-0.022 0.02,-0.041 0.035,-0.057c0.015,-0.015 0.033,-0.027 0.054,-0.035c0.022,-0.008 0.046,-0.012 0.072,-0.012c0.023,0 0.044,0.003 0.063,0.01l-0.002,0.045c-0.001,0.008 -0.005,0.012 -0.013,0.013c-0.008,0 -0.019,0.001 -0.033,0.001c-0.015,-0 -0.029,0.002 -0.042,0.006c-0.012,0.004 -0.023,0.01 -0.032,0.019c-0.009,0.009 -0.016,0.021 -0.021,0.035c-0.005,0.015 -0.007,0.033 -0.007,0.055l-0,0.046l0.24,0l0.02,-0.157c0.002,-0.005 0.004,-0.009 0.008,-0.012c0.003,-0.003 0.008,-0.005 0.013,-0.005l0.045,-0l0,0.174l0.146,0l0,0.065l-0.146,-0Z" style="fill:#2a3f5f;fill-rule:nonzero;"/></g><g transform="matrix(58.3333,0,0,58.3333,676.629,371.667)"></g><g transform="matrix(58.3333,0,0,58.3333,696.368,371.667)"></g><text x="504.167px" y="371.667px" style="font-family:'Lato-Regular', 'Lato', sans-serif;font-size:58.333px;fill:#2a3f5f;">v<tspan x="533.45px " y="371.667px ">e</tspan>rkau</text><g><g><text x="916.602px" y="375.75px" style="font-family:'Lato-Regular', 'Lato', sans-serif;font-size:50px;fill:#2a3f5f;">F<tspan x="941.327px " y="375.75px ">a</tspan>lse</text><g><g><g><path d="M845.768,356.25c0,6.857 -5.642,12.5 -12.5,12.5c-6.857,0 -12.5,-5.643 -12.5,-12.5c0,-6.857 5.643,-12.5 12.5,-12.5c6.858,0 12.5,5.643 12.5,12.5Z" style="fill:#636efa;fill-rule:nonzero;"/></g></g></g><rect x="749.935" y="316.667" width="286.523" height="79.167" style="fill-opacity:0;"/></g></g><g><g><text x="1213.54px" y="375.75px" style="font-family:'Lato-Regular', 'Lato', sans-serif;font-size:50px;fill:#2a3f5f;">T<tspan x="1237.57px " y="375.75px ">r</tspan>ue</text><g><g><g><path d="M1142.71,356.25c0,6.857 -5.642,12.5 -12.5,12.5c-6.857,0 -12.5,-5.643 -12.5,-12.5c0,-6.857 5.643,-12.5 12.5,-12.5c6.858,0 12.5,5.643 12.5,12.5Z" style="fill:#ef553b;fill-rule:nonzero;"/></g></g></g><rect x="1046.88" y="316.667" width="273.633" height="79.167" style="fill-opacity:0;"/></g></g></g></g><g><g transform="matrix(70.8333,0,0,70.8333,992.444,208.333)"><path d="M0.541,-0l-0.09,-0l0,-0.432l-0.261,0l0,0.304c0,0.021 0.006,0.037 0.016,0.048c0.01,0.01 0.024,0.015 0.04,0.015c0.009,0 0.017,-0.001 0.024,-0.004c0.007,-0.002 0.013,-0.005 0.018,-0.008c0.005,-0.003 0.009,-0.006 0.013,-0.008c0.003,-0.003 0.006,-0.004 0.009,-0.004c0.005,0 0.009,0.003 0.012,0.009l0.026,0.042c-0.015,0.014 -0.033,0.026 -0.055,0.034c-0.022,0.008 -0.044,0.012 -0.067,0.012c-0.04,0 -0.071,-0.011 -0.092,-0.033c-0.022,-0.023 -0.033,-0.055 -0.033,-0.097l0,-0.31l-0.061,0c-0.005,0 -0.009,-0.002 -0.013,-0.005c-0.004,-0.003 -0.006,-0.008 -0.006,-0.015l0,-0.035l0.083,-0.011l0.021,-0.156c0.001,-0.005 0.003,-0.009 0.007,-0.012c0.003,-0.003 0.008,-0.005 0.013,-0.005l0.045,0l0,0.175l0.35,-0.001l0,0.497Zm0.022,-0.669c0,0.009 -0.001,0.017 -0.005,0.024c-0.003,0.008 -0.008,0.014 -0.014,0.02c-0.006,0.006 -0.012,0.01 -0.02,0.013c-0.008,0.004 -0.016,0.005 -0.025,0.005c-0.008,0 -0.016,-0.001 -0.024,-0.005c-0.007,-0.003 -0.014,-0.007 -0.02,-0.013c-0.005,-0.006 -0.01,-0.012 -0.013,-0.02c-0.003,-0.007 -0.005,-0.015 -0.005,-0.024c-0,-0.009 0.002,-0.017 0.005,-0.025c0.003,-0.008 0.008,-0.014 0.013,-0.02c0.006,-0.006 0.013,-0.011 0.02,-0.014c0.008,-0.003 0.016,-0.005 0.024,-0.005c0.009,0 0.017,0.002 0.025,0.005c0.008,0.003 0.014,0.008 0.02,0.014c0.006,0.006 0.011,0.012 0.014,0.02c0.004,0.008 0.005,0.016 0.005,0.025Z" style="fill:#2a3f5f;fill-rule:nonzero;"/></g><g transform="matrix(70.8333,0,0,70.8333,992.444,208.333)"></g><g transform="matrix(70.8333,0,0,70.8333,1018.58,208.333)"></g><text x="83.333px" y="208.333px" style="font-family:'Lato-Regular', 'Lato', sans-serif;font-size:70.833px;fill:#2a3f5f;">K<tspan x="128.454px " y="208.333px ">ü</tspan>nstliche D<tspan x="479.079px 513.823px 539.04px " y="208.333px 208.333px 208.333px ">ate</tspan>n: <tspan x="649.256px 691.898px " y="208.333px 208.333px ">Ve</tspan>rkaufsak<tspan x="1036.08px " y="208.333px ">o</tspan>n im <tspan x="1224.92px 1271.99px 1311.48px 1336.69px " y="208.333px 208.333px 208.333px 208.333px ">Auto</tspan>haus</text></g><g><text x="574.537px" y="1711.67px" style="font-family:'Lato-Regular', 'Lato', sans-serif;font-size:58.333px;fill:#2a3f5f;">Kilome<tspan x="752.6px 773.367px 804.167px 825.225px " y="1711.67px 1711.67px 1711.67px 1711.67px ">ters</tspan>tand [km<tspan x="1074.28px " y="1711.67px ">]</tspan></text></g><g><g transform="matrix(-3.82857e-16,-1,1,-3.82857e-16,-836.797,1121.54)"><text x="-1.801px" y="979.167px" style="font-family:'Lato-Regular', 'Lato', sans-serif;font-size:58.333px;fill:#2a3f5f;">P<tspan x="32.674px 52.711px " y="979.167px 979.167px ">re</tspan>is [EUR]</text></g></g></g><rect x="0" y="0" width="1666.67" height="1875" style="fill:none;stroke:#000;stroke-width:8.33px;stroke-linecap:round;stroke-linejoin:round;stroke-miterlimit:1.5;"/></svg>