<?xml version="1.0" encoding="UTF-8" standalone="no"?><!DOCTYPE svg PUBLIC "-//W3C//DTD SVG 1.1//EN" "http://www.w3.org/Graphics/SVG/1.1/DTD/svg11.dtd"><svg width="100%" height="100%" viewBox="0 0 3334 1875" version="1.1" xmlns="http://www.w3.org/2000/svg" xmlns:xlink="http://www.w3.org/1999/xlink" xml:space="preserve" xmlns:serif="http://www.serif.com/" style="fill-rule:evenodd;clip-rule:evenodd;"><rect x="2001.57" y="177.083" width="666.667" height="283.333" style="fill:#fff;fill-rule:nonzero;stroke:#000;stroke-width:4.17px;"/><rect x="0" y="0" width="1666.67" height="1875" style="fill:#fff;"/><rect x="333.333" y="416.667" width="1000" height="1125" style="fill:#e5ecf6;"/><g><g><g><path d="M594.792,416.667l-0,1125" style="fill:none;fill-rule:nonzero;stroke:#fff;stroke-width:4.17px;"/><path d="M890.208,416.667l0,1125" style="fill:none;fill-rule:nonzero;stroke:#fff;stroke-width:4.17px;"/><path d="M1185.62,416.667l0,1125" style="fill:none;fill-rule:nonzero;stroke:#fff;stroke-width:4.17px;"/></g><g><path d="M333.333,1488.08l1000,0" style="fill:none;fill-rule:nonzero;stroke:#fff;stroke-width:4.17px;"/><path d="M333.333,1220.25l1000,0" style="fill:none;fill-rule:nonzero;stroke:#fff;stroke-width:4.17px;"/><path d="M333.333,952.375l1000,0" style="fill:none;fill-rule:nonzero;stroke:#fff;stroke-width:4.17px;"/><path d="M333.333,684.542l1000,-0" style="fill:none;fill-rule:nonzero;stroke:#fff;stroke-width:4.17px;"/></g></g><g><g><g><g><path d="M1284.04,900.958c-0,6.858 -5.643,12.5 -12.5,12.5c-6.858,0 -12.5,-5.642 -12.5,-12.5c-0,-6.857 5.642,-12.5 12.5,-12.5c6.857,0 12.5,5.643 12.5,12.5Z" style="fill:#636efa;fill-rule:nonzero;"/><path d="M704.333,833.083c0,6.858 -5.642,12.5 -12.5,12.5c-6.857,0 -12.5,-5.642 -12.5,-12.5c0,-6.857 5.643,-12.5 12.5,-12.5c6.858,0 12.5,5.643 12.5,12.5Z" style="fill:#636efa;fill-rule:nonzero;"/><path d="M1122.75,1465.17c0,6.857 -5.643,12.5 -12.5,12.5c-6.857,-0 -12.5,-5.643 -12.5,-12.5c0,-6.858 5.643,-12.5 12.5,-12.5c6.857,-0 12.5,5.642 12.5,12.5Z" style="fill:#636efa;fill-rule:nonzero;"/><path d="M1283.46,1028.42c0,6.857 -5.642,12.5 -12.5,12.5c-6.857,-0 -12.5,-5.643 -12.5,-12.5c0,-6.858 5.643,-12.5 12.5,-12.5c6.858,-0 12.5,5.642 12.5,12.5Z" style="fill:#636efa;fill-rule:nonzero;"/><path d="M852.333,1146.21c0,6.858 -5.642,12.5 -12.5,12.5c-6.857,0 -12.5,-5.642 -12.5,-12.5c0,-6.857 5.643,-12.5 12.5,-12.5c6.858,0 12.5,5.643 12.5,12.5Z" style="fill:#636efa;fill-rule:nonzero;"/></g><g><g><text x="1222.75px" y="868.667px" style="font-family:'Lato-Regular', 'Lato', sans-serif;font-size:50px;fill:#2a3f5f;">1</text></g><g><text x="643.042px" y="800.792px" style="font-family:'Lato-Regular', 'Lato', sans-serif;font-size:50px;fill:#2a3f5f;">3</text></g><g><text x="1061.46px" y="1432.88px" style="font-family:'Lato-Regular', 'Lato', sans-serif;font-size:50px;fill:#2a3f5f;">5</text></g><g><text x="1222.17px" y="996.125px" style="font-family:'Lato-Regular', 'Lato', sans-serif;font-size:50px;fill:#2a3f5f;">7</text></g><g><text x="762.042px" y="1113.92px" style="font-family:'Lato-Regular', 'Lato', sans-serif;font-size:50px;fill:#2a3f5f;">10</text></g></g></g><g><g><path d="M912.375,658c0,6.857 -5.643,12.5 -12.5,12.5c-6.857,0 -12.5,-5.643 -12.5,-12.5c0,-6.857 5.643,-12.5 12.5,-12.5c6.857,0 12.5,5.643 12.5,12.5Z" style="fill:#ef553b;fill-rule:nonzero;"/><path d="M818.875,799.667c0,6.857 -5.643,12.5 -12.5,12.5c-6.857,-0 -12.5,-5.643 -12.5,-12.5c0,-6.858 5.643,-12.5 12.5,-12.5c6.857,-0 12.5,5.642 12.5,12.5Z" style="fill:#ef553b;fill-rule:nonzero;"/><path d="M717.042,536.042c-0,6.857 -5.643,12.5 -12.5,12.5c-6.858,-0 -12.5,-5.643 -12.5,-12.5c-0,-6.858 5.642,-12.5 12.5,-12.5c6.857,-0 12.5,5.642 12.5,12.5Z" style="fill:#ef553b;fill-rule:nonzero;"/><path d="M403.75,856.333c0,6.858 -5.643,12.5 -12.5,12.5c-6.857,0 -12.5,-5.642 -12.5,-12.5c0,-6.857 5.643,-12.5 12.5,-12.5c6.857,0 12.5,5.643 12.5,12.5Z" style="fill:#ef553b;fill-rule:nonzero;"/><path d="M772.917,510.25c-0,6.857 -5.643,12.5 -12.5,12.5c-6.858,0 -12.5,-5.643 -12.5,-12.5c-0,-6.857 5.642,-12.5 12.5,-12.5c6.857,0 12.5,5.643 12.5,12.5Z" style="fill:#ef553b;fill-rule:nonzero;"/></g><g><g><text x="851.083px" y="625.708px" style="font-family:'Lato-Regular', 'Lato', sans-serif;font-size:50px;fill:#2a3f5f;">2</text></g><g><text x="757.583px" y="767.375px" style="font-family:'Lato-Regular', 'Lato', sans-serif;font-size:50px;fill:#2a3f5f;">4</text></g><g><text x="655.75px" y="503.75px" style="font-family:'Lato-Regular', 'Lato', sans-serif;font-size:50px;fill:#2a3f5f;">6</text></g><g><text x="342.458px" y="824.042px" style="font-family:'Lato-Regular', 'Lato', sans-serif;font-size:50px;fill:#2a3f5f;">8</text></g><g><text x="711.625px" y="477.958px" style="font-family:'Lato-Regular', 'Lato', sans-serif;font-size:50px;fill:#2a3f5f;">9</text></g></g></g></g></g><g><g><text x="553.092px" y="1595.83px" style="font-family:'Lato-Regular', 'Lato', sans-serif;font-size:50px;fill:#2a3f5f;">10k</text></g><g><text x="848.508px" y="1595.83px" style="font-family:'Lato-Regular', 'Lato', sans-serif;font-size:50px;fill:#2a3f5f;">20k</text></g><g><text x="1143.92px" y="1595.83px" style="font-family:'Lato-Regular', 'Lato', sans-serif;font-size:50px;fill:#2a3f5f;">30k</text></g></g><g><g><text x="274.767px" y="1505.58px" style="font-family:'Lato-Regular', 'Lato', sans-serif;font-size:50px;fill:#2a3f5f;">5k</text></g><g><text x="245.767px" y="1237.75px" style="font-family:'Lato-Regular', 'Lato', sans-serif;font-size:50px;fill:#2a3f5f;">10k</text></g><g><text x="245.767px" y="969.875px" style="font-family:'Lato-Regular', 'Lato', sans-serif;font-size:50px;fill:#2a3f5f;">15k</text></g><g><text x="245.767px" y="702.042px" style="font-family:'Lato-Regular', 'Lato', sans-serif;font-size:50px;fill:#2a3f5f;">20k</text></g><g><text x="245.767px" y="434.167px" style="font-family:'Lato-Regular', 'Lato', sans-serif;font-size:50px;fill:#2a3f5f;">25k</text></g></g></g><g><path d="M333.333,878.625l1000,0" style="fill:none;stroke:#2a3f5f;stroke-width:8.33px;stroke-dasharray:37.5,37.5;"/><rect x="333.333" y="878.625" width="1000" height="663.042" style="fill:#636efa;fill-opacity:0.2;"/></g><g><rect x="495.833" y="295.833" width="837.5" height="120.833" style="fill:#fff;"/><g><g transform="matrix(58.3333,0,0,58.3333,676.629,371.667)"><path d="M0.517,-0.432l-0.001,0.304c0,0.021 0.006,0.037 0.016,0.048c0.01,0.01 0.023,0.015 0.039,0.015c0.01,0 0.018,-0.001 0.025,-0.004c0.007,-0.002 0.013,-0.005 0.018,-0.008c0.005,-0.003 0.009,-0.006 0.012,-0.008c0.004,-0.003 0.007,-0.004 0.009,-0.004c0.003,0 0.006,0.001 0.008,0.002c0.002,0.001 0.003,0.004 0.005,0.007l0.026,0.042c-0.015,0.014 -0.033,0.026 -0.055,0.034c-0.022,0.008 -0.044,0.012 -0.068,0.012c-0.039,0 -0.07,-0.011 -0.091,-0.033c-0.022,-0.023 -0.033,-0.055 -0.033,-0.097l0,-0.31l-0.234,0l-0,0.432l-0.09,-0l0,-0.431l-0.056,-0.006c-0.007,-0.002 -0.012,-0.004 -0.017,-0.008c-0.004,-0.003 -0.007,-0.008 -0.007,-0.015l0,-0.036l0.08,-0.001l0,-0.048c0,-0.029 0.005,-0.055 0.013,-0.078c0.008,-0.022 0.02,-0.041 0.035,-0.057c0.015,-0.015 0.033,-0.027 0.054,-0.035c0.022,-0.008 0.046,-0.012 0.072,-0.012c0.023,0 0.044,0.003 0.063,0.01l-0.002,0.045c-0.001,0.008 -0.005,0.012 -0.013,0.013c-0.008,0 -0.019,0.001 -0.033,0.001c-0.015,-0 -0.029,0.002 -0.042,0.006c-0.012,0.004 -0.023,0.01 -0.032,0.019c-0.009,0.009 -0.016,0.021 -0.021,0.035c-0.005,0.015 -0.007,0.033 -0.007,0.055l-0,0.046l0.24,0l0.02,-0.157c0.002,-0.005 0.004,-0.009 0.008,-0.012c0.003,-0.003 0.008,-0.005 0.013,-0.005l0.045,-0l0,0.174l0.146,0l0,0.065l-0.146,-0Z" style="fill:#2a3f5f;fill-rule:nonzero;"/></g><g transform="matrix(58.3333,0,0,58.3333,676.629,371.667)"></g><g transform="matrix(58.3333,0,0,58.3333,696.368,371.667)"></g><text x="504.167px" y="371.667px" style="font-family:'Lato-Regular', 'Lato', sans-serif;font-size:58.333px;fill:#2a3f5f;">v<tspan x="533.45px " y="371.667px ">e</tspan>rkau</text><g><g><text x="916.602px" y="375.75px" style="font-family:'Lato-Regular', 'Lato', sans-serif;font-size:50px;fill:#2a3f5f;">F<tspan x="941.327px " y="375.75px ">a</tspan>lse</text><g><g><g><path d="M845.768,356.25c0,6.857 -5.642,12.5 -12.5,12.5c-6.857,0 -12.5,-5.643 -12.5,-12.5c0,-6.857 5.643,-12.5 12.5,-12.5c6.858,0 12.5,5.643 12.5,12.5Z" style="fill:#636efa;fill-rule:nonzero;"/></g></g></g><rect x="749.935" y="316.667" width="286.523" height="79.167" style="fill-opacity:0;"/></g></g><g><g><text x="1213.54px" y="375.75px" style="font-family:'Lato-Regular', 'Lato', sans-serif;font-size:50px;fill:#2a3f5f;">T<tspan x="1237.57px " y="375.75px ">r</tspan>ue</text><g><g><g><path d="M1142.71,356.25c0,6.857 -5.642,12.5 -12.5,12.5c-6.857,0 -12.5,-5.643 -12.5,-12.5c0,-6.857 5.643,-12.5 12.5,-12.5c6.858,0 12.5,5.643 12.5,12.5Z" style="fill:#ef553b;fill-rule:nonzero;"/></g></g></g><rect x="1046.88" y="316.667" width="273.633" height="79.167" style="fill-opacity:0;"/></g></g></g></g><g><g transform="matrix(70.8333,0,0,70.8333,992.444,208.333)"><path d="M0.541,-0l-0.09,-0l0,-0.432l-0.261,0l0,0.304c0,0.021 0.006,0.037 0.016,0.048c0.01,0.01 0.024,0.015 0.04,0.015c0.009,0 0.017,-0.001 0.024,-0.004c0.007,-0.002 0.013,-0.005 0.018,-0.008c0.005,-0.003 0.009,-0.006 0.013,-0.008c0.003,-0.003 0.006,-0.004 0.009,-0.004c0.005,0 0.009,0.003 0.012,0.009l0.026,0.042c-0.015,0.014 -0.033,0.026 -0.055,0.034c-0.022,0.008 -0.044,0.012 -0.067,0.012c-0.04,0 -0.071,-0.011 -0.092,-0.033c-0.022,-0.023 -0.033,-0.055 -0.033,-0.097l0,-0.31l-0.061,0c-0.005,0 -0.009,-0.002 -0.013,-0.005c-0.004,-0.003 -0.006,-0.008 -0.006,-0.015l0,-0.035l0.083,-0.011l0.021,-0.156c0.001,-0.005 0.003,-0.009 0.007,-0.012c0.003,-0.003 0.008,-0.005 0.013,-0.005l0.045,0l0,0.175l0.35,-0.001l0,0.497Zm0.022,-0.669c0,0.009 -0.001,0.017 -0.005,0.024c-0.003,0.008 -0.008,0.014 -0.014,0.02c-0.006,0.006 -0.012,0.01 -0.02,0.013c-0.008,0.004 -0.016,0.005 -0.025,0.005c-0.008,0 -0.016,-0.001 -0.024,-0.005c-0.007,-0.003 -0.014,-0.007 -0.02,-0.013c-0.005,-0.006 -0.01,-0.012 -0.013,-0.02c-0.003,-0.007 -0.005,-0.015 -0.005,-0.024c-0,-0.009 0.002,-0.017 0.005,-0.025c0.003,-0.008 0.008,-0.014 0.013,-0.02c0.006,-0.006 0.013,-0.011 0.02,-0.014c0.008,-0.003 0.016,-0.005 0.024,-0.005c0.009,0 0.017,0.002 0.025,0.005c0.008,0.003 0.014,0.008 0.02,0.014c0.006,0.006 0.011,0.012 0.014,0.02c0.004,0.008 0.005,0.016 0.005,0.025Z" style="fill:#2a3f5f;fill-rule:nonzero;"/></g><g transform="matrix(70.8333,0,0,70.8333,992.444,208.333)"></g><g transform="matrix(70.8333,0,0,70.8333,1018.58,208.333)"></g><text x="83.333px" y="208.333px" style="font-family:'Lato-Regular', 'Lato', sans-serif;font-size:70.833px;fill:#2a3f5f;">K<tspan x="128.454px " y="208.333px ">ü</tspan>nstliche D<tspan x="479.079px 513.823px 539.04px " y="208.333px 208.333px 208.333px ">ate</tspan>n: <tspan x="649.256px 691.898px " y="208.333px 208.333px ">Ve</tspan>rkaufsak<tspan x="1036.08px " y="208.333px ">o</tspan>n im <tspan x="1224.92px 1271.99px 1311.48px 1336.69px " y="208.333px 208.333px 208.333px 208.333px ">Auto</tspan>haus</text></g><g><text x="574.537px" y="1711.67px" style="font-family:'Lato-Regular', 'Lato', sans-serif;font-size:58.333px;fill:#2a3f5f;">Kilome<tspan x="752.6px 773.367px 804.167px 825.225px " y="1711.67px 1711.67px 1711.67px 1711.67px ">ters</tspan>tand [km<tspan x="1074.28px " y="1711.67px ">]</tspan></text></g><g><g transform="matrix(-3.82857e-16,-1,1,-3.82857e-16,-836.797,1121.54)"><text x="-1.801px" y="979.167px" style="font-family:'Lato-Regular', 'Lato', sans-serif;font-size:58.333px;fill:#2a3f5f;">P<tspan x="32.674px 52.711px " y="979.167px 979.167px ">re</tspan>is [EUR]</text></g></g><rect x="2255.74" y="610.417" width="875" height="283.333" style="fill:#fff;fill-rule:nonzero;stroke:#000;stroke-width:4.17px;"/><g><g transform="matrix(50,0,0,50,2474.92,832.957)"></g><text x="2445.92px" y="832.957px" style="font-family:'Lato-Regular', 'Lato', sans-serif;font-size:50px;fill:#ef553b;">6</text><g><g><path d="M2489.43,843.8c2.341,-0 4.246,1.905 4.246,4.246c-0,2.341 -1.905,4.246 -4.246,4.246c-2.342,0 -4.247,-1.905 -4.247,-4.246c0,-2.341 1.905,-4.246 4.247,-4.246Z" style="fill:#ef553b;fill-rule:nonzero;"/><path d="M2481.26,848.046c0,4.509 3.656,8.165 8.165,8.165c4.509,0 8.165,-3.656 8.165,-8.165c0,-4.509 -3.656,-8.165 -8.165,-8.165c-4.509,0 -8.165,3.656 -8.165,8.165Zm2.104,0c-0,-3.342 2.719,-6.061 6.062,-6.061c3.342,-0 6.061,2.719 6.061,6.061c-0,3.342 -2.719,6.061 -6.061,6.061c-3.343,0 -6.062,-2.719 -6.062,-6.061Z" style="fill:#ef553b;fill-rule:nonzero;"/></g><g><path d="M2555.59,843.8c2.341,-0 4.246,1.905 4.246,4.246c-0,2.341 -1.905,4.246 -4.246,4.246c-2.341,0 -4.247,-1.905 -4.247,-4.246c0,-2.341 1.906,-4.246 4.247,-4.246Z" style="fill:#ef553b;fill-rule:nonzero;"/><path d="M2547.42,848.046c-0,4.509 3.656,8.165 8.165,8.165c4.51,0 8.165,-3.656 8.165,-8.165c0,-4.509 -3.655,-8.165 -8.165,-8.165c-4.51,0 -8.165,3.656 -8.165,8.165Zm2.103,0c0,-3.342 2.72,-6.061 6.062,-6.061c3.342,-0 6.061,2.719 6.061,6.061c-0,3.342 -2.719,6.061 -6.061,6.061c-3.343,0 -6.062,-2.719 -6.062,-6.061Z" style="fill:#ef553b;fill-rule:nonzero;"/></g><path d="M2475.36,848.046l4.591,0c-0,0 -0.27,-9.92 9.473,-9.92c9.743,-0 10.104,9.92 10.104,9.92l46.176,0c0,0 0,-9.785 9.878,-9.785c9.879,-0 10.106,9.785 10.106,9.785c8.776,0 10.261,0.611 10.531,-4.246c0.27,-4.858 -2.971,-4.999 -2.971,-4.999c-1.62,-12.287 -25.383,-12.962 -25.383,-12.962c-0,-0 -14.312,-10.667 -23.088,-10.937c-8.777,-0.27 -20.118,-1.215 -28.894,1.756c-8.777,2.97 -17.418,18.902 -17.418,18.902c-5.265,3.781 -3.105,12.486 -3.105,12.486Zm90.274,-16.738c0,-0 5.726,2.704 5.854,7.618c-0,-0 -4.187,0.769 -5.64,-0.898c-1.453,-1.666 -0.214,-6.72 -0.214,-6.72Zm-53.25,-13.836c2.649,0.017 5.282,-0.03 7.843,-0.034c11.338,-0.018 21.449,8.693 21.449,8.693l-29.291,0.052l-0,-8.711l-0.001,0Zm-23.905,8.753c5.876,-7.491 13.475,-8.625 21.165,-8.744l0,8.707l-21.165,0.037Z" style="fill:#ef553b;fill-rule:nonzero;stroke:#ef553b;stroke-width:4.17px;stroke-linejoin:round;stroke-miterlimit:2;"/></g></g><g><g transform="matrix(50,0,0,50,2903.7,728.829)"></g><text x="2874.7px" y="728.829px" style="font-family:'Lato-Regular', 'Lato', sans-serif;font-size:50px;fill:#ef553b;">4</text><g><g><path d="M2918.2,739.672c2.341,-0 4.246,1.905 4.246,4.246c0,2.342 -1.905,4.246 -4.246,4.246c-2.342,0 -4.246,-1.904 -4.246,-4.246c-0,-2.341 1.904,-4.246 4.246,-4.246Z" style="fill:#ef553b;fill-rule:nonzero;"/><path d="M2910.04,743.918c-0,4.51 3.656,8.165 8.165,8.165c4.509,0 8.165,-3.655 8.165,-8.165c-0,-4.509 -3.656,-8.165 -8.165,-8.165c-4.509,0 -8.165,3.656 -8.165,8.165Zm2.103,0c0,-3.342 2.72,-6.061 6.062,-6.061c3.342,0 6.061,2.719 6.061,6.061c0,3.342 -2.719,6.062 -6.061,6.062c-3.342,-0 -6.062,-2.72 -6.062,-6.062Z" style="fill:#ef553b;fill-rule:nonzero;"/></g><g><path d="M2984.36,739.672c2.342,-0 4.246,1.905 4.246,4.246c0,2.342 -1.904,4.246 -4.246,4.246c-2.341,0 -4.246,-1.904 -4.246,-4.246c-0,-2.341 1.905,-4.246 4.246,-4.246Z" style="fill:#ef553b;fill-rule:nonzero;"/><path d="M2976.2,743.918c0,4.51 3.656,8.165 8.165,8.165c4.51,0 8.166,-3.655 8.166,-8.165c-0,-4.509 -3.656,-8.165 -8.166,-8.165c-4.509,0 -8.165,3.656 -8.165,8.165Zm2.104,0c-0,-3.342 2.719,-6.061 6.061,-6.061c3.343,0 6.061,2.719 6.061,6.061c0,3.342 -2.719,6.062 -6.061,6.062c-3.342,-0 -6.061,-2.72 -6.061,-6.062Z" style="fill:#ef553b;fill-rule:nonzero;"/></g><path d="M2904.14,743.918l4.591,0c0,0 -0.27,-9.92 9.473,-9.92c9.743,0 10.105,9.92 10.105,9.92l46.176,0c-0,0 -0,-9.785 9.878,-9.785c9.878,0 10.105,9.785 10.105,9.785c8.776,0 10.261,0.611 10.531,-4.246c0.27,-4.858 -2.97,-4.999 -2.97,-4.999c-1.621,-12.287 -25.384,-12.962 -25.384,-12.962c0,0 -14.312,-10.666 -23.088,-10.937c-8.776,-0.27 -20.117,-1.215 -28.894,1.756c-8.776,2.97 -17.417,18.902 -17.417,18.902c-5.266,3.781 -3.106,12.486 -3.106,12.486Zm90.275,-16.738c-0,0 5.725,2.704 5.853,7.618c0,-0 -4.186,0.769 -5.639,-0.898c-1.453,-1.666 -0.214,-6.72 -0.214,-6.72Zm-53.25,-13.835c2.648,0.016 5.282,-0.03 7.842,-0.035c11.339,-0.017 21.449,8.693 21.449,8.693l-29.291,0.052l0,-8.71l-0,-0Zm-23.906,8.753c5.877,-7.491 13.475,-8.626 21.166,-8.745l-0,8.707l-21.166,0.038Z" style="fill:#ef553b;fill-rule:nonzero;stroke:#ef553b;stroke-width:4.17px;stroke-linejoin:round;stroke-miterlimit:2;"/></g></g><g><g transform="matrix(50,0,0,50,2731.39,832.957)"></g><text x="2702.39px" y="832.957px" style="font-family:'Lato-Regular', 'Lato', sans-serif;font-size:50px;fill:#ef553b;">8</text><g><g><path d="M2745.89,843.8c2.341,-0 4.246,1.905 4.246,4.246c0,2.341 -1.905,4.246 -4.246,4.246c-2.342,0 -4.247,-1.905 -4.247,-4.246c0,-2.341 1.905,-4.246 4.247,-4.246Z" style="fill:#ef553b;fill-rule:nonzero;"/><path d="M2737.73,848.046c-0,4.509 3.655,8.165 8.165,8.165c4.509,0 8.165,-3.656 8.165,-8.165c-0,-4.509 -3.656,-8.165 -8.165,-8.165c-4.51,0 -8.165,3.656 -8.165,8.165Zm2.103,0c0,-3.342 2.719,-6.061 6.062,-6.061c3.342,-0 6.061,2.719 6.061,6.061c0,3.342 -2.719,6.061 -6.061,6.061c-3.343,0 -6.062,-2.719 -6.062,-6.061Z" style="fill:#ef553b;fill-rule:nonzero;"/></g><g><path d="M2812.05,843.8c2.341,-0 4.246,1.905 4.246,4.246c-0,2.341 -1.905,4.246 -4.246,4.246c-2.341,0 -4.246,-1.905 -4.246,-4.246c-0,-2.341 1.905,-4.246 4.246,-4.246Z" style="fill:#ef553b;fill-rule:nonzero;"/><path d="M2803.89,848.046c0,4.509 3.656,8.165 8.165,8.165c4.51,0 8.166,-3.656 8.166,-8.165c-0,-4.509 -3.656,-8.165 -8.166,-8.165c-4.509,0 -8.165,3.656 -8.165,8.165Zm2.103,0c0,-3.342 2.72,-6.061 6.062,-6.061c3.342,-0 6.061,2.719 6.061,6.061c0,3.342 -2.719,6.061 -6.061,6.061c-3.342,0 -6.062,-2.719 -6.062,-6.061Z" style="fill:#ef553b;fill-rule:nonzero;"/></g><path d="M2731.83,848.046l4.591,0c0,0 -0.27,-9.92 9.473,-9.92c9.743,-0 10.105,9.92 10.105,9.92l46.176,0c-0,0 -0,-9.785 9.878,-9.785c9.878,-0 10.105,9.785 10.105,9.785c8.776,0 10.261,0.611 10.531,-4.246c0.27,-4.858 -2.971,-4.999 -2.971,-4.999c-1.62,-12.287 -25.383,-12.962 -25.383,-12.962c0,-0 -14.312,-10.667 -23.088,-10.937c-8.776,-0.27 -20.118,-1.215 -28.894,1.756c-8.777,2.97 -17.418,18.902 -17.418,18.902c-5.265,3.781 -3.105,12.486 -3.105,12.486Zm90.275,-16.738c-0,-0 5.725,2.704 5.853,7.618c0,-0 -4.187,0.769 -5.64,-0.898c-1.453,-1.666 -0.213,-6.72 -0.213,-6.72Zm-53.251,-13.836c2.649,0.017 5.283,-0.03 7.843,-0.034c11.339,-0.018 21.449,8.693 21.449,8.693l-29.291,0.052l-0,-8.711l-0.001,0Zm-23.905,8.753c5.877,-7.491 13.475,-8.625 21.166,-8.744l-0,8.707l-21.166,0.037Z" style="fill:#ef553b;fill-rule:nonzero;stroke:#ef553b;stroke-width:4.17px;stroke-linejoin:round;stroke-miterlimit:2;"/></g></g><g><g transform="matrix(50,0,0,50,2993.22,832.957)"></g><text x="2964.22px" y="832.957px" style="font-family:'Lato-Regular', 'Lato', sans-serif;font-size:50px;fill:#ef553b;">9</text><g><g><path d="M3007.72,843.8c2.341,-0 4.246,1.905 4.246,4.246c-0,2.341 -1.905,4.246 -4.246,4.246c-2.342,0 -4.247,-1.905 -4.247,-4.246c0,-2.341 1.905,-4.246 4.247,-4.246Z" style="fill:#ef553b;fill-rule:nonzero;"/><path d="M2999.56,848.046c0,4.509 3.656,8.165 8.165,8.165c4.509,0 8.165,-3.656 8.165,-8.165c0,-4.509 -3.656,-8.165 -8.165,-8.165c-4.509,0 -8.165,3.656 -8.165,8.165Zm2.104,0c-0,-3.342 2.719,-6.061 6.062,-6.061c3.342,-0 6.061,2.719 6.061,6.061c-0,3.342 -2.719,6.061 -6.061,6.061c-3.343,0 -6.062,-2.719 -6.062,-6.061Z" style="fill:#ef553b;fill-rule:nonzero;"/></g><g><path d="M3073.88,843.8c2.341,-0 4.246,1.905 4.246,4.246c-0,2.341 -1.905,4.246 -4.246,4.246c-2.341,0 -4.247,-1.905 -4.247,-4.246c0,-2.341 1.906,-4.246 4.247,-4.246Z" style="fill:#ef553b;fill-rule:nonzero;"/><path d="M3065.72,848.046c-0,4.509 3.656,8.165 8.165,8.165c4.51,0 8.165,-3.656 8.165,-8.165c0,-4.509 -3.655,-8.165 -8.165,-8.165c-4.51,0 -8.165,3.656 -8.165,8.165Zm2.103,0c0,-3.342 2.72,-6.061 6.062,-6.061c3.342,-0 6.061,2.719 6.061,6.061c-0,3.342 -2.719,6.061 -6.061,6.061c-3.343,0 -6.062,-2.719 -6.062,-6.061Z" style="fill:#ef553b;fill-rule:nonzero;"/></g><path d="M2993.66,848.046l4.591,0c-0,0 -0.27,-9.92 9.473,-9.92c9.743,-0 10.104,9.92 10.104,9.92l46.176,0c0,0 0,-9.785 9.878,-9.785c9.879,-0 10.106,9.785 10.106,9.785c8.776,0 10.261,0.611 10.531,-4.246c0.27,-4.858 -2.971,-4.999 -2.971,-4.999c-1.62,-12.287 -25.383,-12.962 -25.383,-12.962c-0,-0 -14.312,-10.667 -23.088,-10.937c-8.777,-0.27 -20.118,-1.215 -28.894,1.756c-8.777,2.97 -17.418,18.902 -17.418,18.902c-5.265,3.781 -3.105,12.486 -3.105,12.486Zm90.274,-16.738c0,-0 5.726,2.704 5.854,7.618c-0,-0 -4.187,0.769 -5.64,-0.898c-1.453,-1.666 -0.214,-6.72 -0.214,-6.72Zm-53.25,-13.836c2.648,0.017 5.282,-0.03 7.843,-0.034c11.338,-0.018 21.449,8.693 21.449,8.693l-29.291,0.052l-0,-8.711l-0.001,0Zm-23.905,8.753c5.876,-7.491 13.475,-8.625 21.165,-8.744l0,8.707l-21.165,0.037Z" style="fill:#ef553b;fill-rule:nonzero;stroke:#ef553b;stroke-width:4.17px;stroke-linejoin:round;stroke-miterlimit:2;"/></g></g><g><g transform="matrix(50,0,0,50,2376.85,728.829)"></g><text x="2347.85px" y="728.829px" style="font-family:'Lato-Regular', 'Lato', sans-serif;font-size:50px;fill:#ef553b;">2</text><g><g><path d="M2391.35,739.672c2.342,-0 4.247,1.905 4.247,4.246c-0,2.342 -1.905,4.246 -4.247,4.246c-2.341,0 -4.246,-1.904 -4.246,-4.246c-0,-2.341 1.905,-4.246 4.246,-4.246Z" style="fill:#ef553b;fill-rule:nonzero;"/><path d="M2383.19,743.918c0,4.51 3.656,8.165 8.165,8.165c4.509,0 8.165,-3.655 8.165,-8.165c0,-4.509 -3.656,-8.165 -8.165,-8.165c-4.509,0 -8.165,3.656 -8.165,8.165Zm2.104,0c-0,-3.342 2.719,-6.061 6.061,-6.061c3.343,0 6.062,2.719 6.062,6.061c-0,3.342 -2.719,6.062 -6.062,6.062c-3.342,-0 -6.061,-2.72 -6.061,-6.062Z" style="fill:#ef553b;fill-rule:nonzero;"/></g><g><path d="M2457.51,739.672c2.341,-0 4.245,1.905 4.245,4.246c0,2.342 -1.904,4.246 -4.245,4.246c-2.342,0 -4.247,-1.904 -4.247,-4.246c0,-2.341 1.905,-4.246 4.247,-4.246Z" style="fill:#ef553b;fill-rule:nonzero;"/><path d="M2449.35,743.918c-0,4.51 3.655,8.165 8.165,8.165c4.509,0 8.165,-3.655 8.165,-8.165c0,-4.509 -3.656,-8.165 -8.165,-8.165c-4.51,0 -8.165,3.656 -8.165,8.165Zm2.103,0c0,-3.342 2.72,-6.061 6.062,-6.061c3.342,0 6.061,2.719 6.061,6.061c-0,3.342 -2.72,6.062 -6.061,6.062c-3.343,-0 -6.062,-2.72 -6.062,-6.062Z" style="fill:#ef553b;fill-rule:nonzero;"/></g><path d="M2377.29,743.918l4.591,0c-0,0 -0.271,-9.92 9.472,-9.92c9.743,0 10.105,9.92 10.105,9.92l46.176,0c0,0 0,-9.785 9.878,-9.785c9.878,0 10.105,9.785 10.105,9.785c8.776,0 10.262,0.611 10.532,-4.246c0.269,-4.858 -2.971,-4.999 -2.971,-4.999c-1.62,-12.287 -25.383,-12.962 -25.383,-12.962c-0,0 -14.312,-10.666 -23.088,-10.937c-8.777,-0.27 -20.118,-1.215 -28.895,1.756c-8.776,2.97 -17.417,18.902 -17.417,18.902c-5.265,3.781 -3.105,12.486 -3.105,12.486Zm90.274,-16.738c0,0 5.726,2.704 5.854,7.618c-0,-0 -4.187,0.769 -5.64,-0.898c-1.453,-1.666 -0.214,-6.72 -0.214,-6.72Zm-53.25,-13.835c2.648,0.016 5.282,-0.03 7.842,-0.035c11.339,-0.017 21.449,8.693 21.449,8.693l-29.291,0.052l0,-8.71l-0,-0Zm-23.905,8.753c5.876,-7.491 13.474,-8.626 21.165,-8.745l0,8.707l-21.165,0.038Z" style="fill:#ef553b;fill-rule:nonzero;stroke:#ef553b;stroke-width:4.17px;stroke-linejoin:round;stroke-miterlimit:2;"/></g></g><rect x="1782.82" y="641.667" width="395.833" height="220.833" style="fill:#fff;fill-rule:nonzero;stroke:#000;stroke-width:4.17px;"/><g><g><g><g><path d="M2071.55,717.771c2.342,0 4.247,1.906 4.247,4.247c-0,2.341 -1.905,4.246 -4.247,4.246c-2.341,0 -4.246,-1.905 -4.246,-4.246c-0,-2.341 1.905,-4.247 4.246,-4.247Z" style="fill:#636efa;fill-rule:nonzero;"/><path d="M2063.38,722.018c0,4.509 3.656,8.165 8.165,8.165c4.509,-0 8.165,-3.656 8.165,-8.165c-0,-4.509 -3.656,-8.166 -8.165,-8.166c-4.509,0.001 -8.165,3.657 -8.165,8.166Zm2.104,-0c-0,-3.342 2.719,-6.061 6.061,-6.061c3.343,-0 6.062,2.719 6.062,6.061c-0,3.342 -2.719,6.061 -6.062,6.061c-3.342,0 -6.061,-2.719 -6.061,-6.061Z" style="fill:#636efa;fill-rule:nonzero;"/></g><g><path d="M2137.71,717.771c2.341,0 4.245,1.906 4.245,4.247c0,2.341 -1.904,4.246 -4.245,4.246c-2.342,0 -4.247,-1.905 -4.247,-4.246c0,-2.341 1.905,-4.247 4.247,-4.247Z" style="fill:#636efa;fill-rule:nonzero;"/><path d="M2129.54,722.018c-0,4.509 3.655,8.165 8.165,8.165c4.509,-0 8.165,-3.656 8.165,-8.165c0,-4.509 -3.656,-8.166 -8.165,-8.166c-4.51,0.001 -8.165,3.657 -8.165,8.166Zm2.103,-0c-0,-3.342 2.72,-6.061 6.062,-6.061c3.342,-0 6.061,2.719 6.061,6.061c-0,3.342 -2.72,6.061 -6.061,6.061c-3.343,0 -6.062,-2.719 -6.062,-6.061Z" style="fill:#636efa;fill-rule:nonzero;"/></g><path d="M2057.48,722.018l4.591,-0c-0,-0 -0.271,-9.92 9.472,-9.92c9.743,-0 10.105,9.92 10.105,9.92l46.176,-0c0,-0 0,-9.785 9.878,-9.785c9.878,-0 10.105,9.785 10.105,9.785c8.776,-0 10.262,0.611 10.532,-4.247c0.269,-4.857 -2.971,-4.999 -2.971,-4.999c-1.62,-12.286 -25.383,-12.961 -25.383,-12.961c-0,-0 -14.312,-10.667 -23.088,-10.937c-8.777,-0.27 -20.118,-1.215 -28.895,1.755c-8.776,2.971 -17.417,18.903 -17.417,18.903c-5.265,3.781 -3.105,12.486 -3.105,12.486Zm90.274,-16.738c0,-0 5.726,2.704 5.854,7.617c-0,0 -4.187,0.769 -5.64,-0.897c-1.453,-1.666 -0.214,-6.72 -0.214,-6.72Zm-53.25,-13.836c2.648,0.016 5.282,-0.03 7.842,-0.034c11.339,-0.018 21.449,8.693 21.449,8.693l-29.291,0.052l0,-8.711l-0,0Zm-23.906,8.753c5.877,-7.491 13.475,-8.625 21.166,-8.745l0,8.707l-21.166,0.038Z" style="fill:#636efa;fill-rule:nonzero;stroke:#636efa;stroke-width:4.17px;stroke-linejoin:round;stroke-miterlimit:2;"/></g></g><g transform="matrix(50,0,0,50,2057.04,706.929)"></g><text x="2028.05px" y="706.929px" style="font-family:'Lato-Regular', 'Lato', sans-serif;font-size:50px;fill:#636efa;">5</text></g><g><g><g><g><path d="M1851.16,806.338c2.341,0 4.246,1.906 4.246,4.247c0,2.341 -1.905,4.246 -4.246,4.246c-2.342,0 -4.247,-1.905 -4.247,-4.246c0,-2.341 1.905,-4.247 4.247,-4.247Z" style="fill:#636efa;fill-rule:nonzero;"/><path d="M1842.99,810.585c0,4.509 3.656,8.165 8.165,8.165c4.51,0 8.165,-3.656 8.165,-8.165c0,-4.509 -3.655,-8.165 -8.165,-8.165c-4.509,0 -8.165,3.656 -8.165,8.165Zm2.104,0c0,-3.342 2.719,-6.061 6.062,-6.061c3.342,-0 6.061,2.719 6.061,6.061c0,3.342 -2.719,6.061 -6.061,6.061c-3.343,0 -6.062,-2.719 -6.062,-6.061Z" style="fill:#636efa;fill-rule:nonzero;"/></g><g><path d="M1917.32,806.338c2.341,0 4.246,1.906 4.246,4.247c-0,2.341 -1.905,4.246 -4.246,4.246c-2.341,0 -4.246,-1.905 -4.246,-4.246c-0,-2.341 1.905,-4.247 4.246,-4.247Z" style="fill:#636efa;fill-rule:nonzero;"/><path d="M1909.15,810.585c0,4.509 3.656,8.165 8.165,8.165c4.51,0 8.166,-3.656 8.166,-8.165c-0,-4.509 -3.656,-8.165 -8.166,-8.165c-4.51,0 -8.165,3.656 -8.165,8.165Zm2.103,0c0,-3.342 2.72,-6.061 6.062,-6.061c3.342,-0 6.061,2.719 6.061,6.061c-0,3.342 -2.719,6.061 -6.061,6.061c-3.342,0 -6.062,-2.719 -6.062,-6.061Z" style="fill:#636efa;fill-rule:nonzero;"/></g><path d="M1837.09,810.585l4.591,0c0,0 -0.27,-9.92 9.473,-9.92c9.743,-0 10.105,9.92 10.105,9.92l46.176,0c-0,0 -0,-9.785 9.878,-9.785c9.878,-0 10.105,9.785 10.105,9.785c8.776,0 10.261,0.611 10.531,-4.247c0.27,-4.857 -2.971,-4.998 -2.971,-4.998c-1.62,-12.287 -25.383,-12.962 -25.383,-12.962c0,-0 -14.312,-10.667 -23.088,-10.937c-8.776,-0.27 -20.118,-1.215 -28.894,1.755c-8.777,2.971 -17.418,18.903 -17.418,18.903c-5.265,3.781 -3.105,12.486 -3.105,12.486Zm90.275,-16.738c-0,-0 5.725,2.704 5.853,7.618c0,-0 -4.187,0.769 -5.64,-0.898c-1.453,-1.666 -0.213,-6.72 -0.213,-6.72Zm-53.251,-13.836c2.649,0.016 5.283,-0.03 7.843,-0.034c11.339,-0.018 21.449,8.693 21.449,8.693l-29.291,0.052l-0,-8.711l-0.001,0Zm-23.905,8.753c5.876,-7.491 13.475,-8.625 21.166,-8.744l-0,8.707l-21.166,0.037Z" style="fill:#636efa;fill-rule:nonzero;stroke:#636efa;stroke-width:4.17px;stroke-linejoin:round;stroke-miterlimit:2;"/></g></g><g transform="matrix(50,0,0,50,1836.66,795.496)"></g><text x="1807.65px" y="795.496px" style="font-family:'Lato-Regular', 'Lato', sans-serif;font-size:50px;fill:#636efa;">7</text></g><g><g><g><g><path d="M2648.05,739.672c2.342,-0 4.247,1.905 4.247,4.246c-0,2.342 -1.905,4.246 -4.247,4.246c-2.341,0 -4.246,-1.904 -4.246,-4.246c-0,-2.341 1.905,-4.246 4.246,-4.246Z" style="fill:#636efa;fill-rule:nonzero;"/><path d="M2639.88,743.918c0,4.51 3.656,8.165 8.165,8.165c4.509,0 8.165,-3.655 8.165,-8.165c-0,-4.509 -3.656,-8.165 -8.165,-8.165c-4.509,0 -8.165,3.656 -8.165,8.165Zm2.104,0c-0,-3.342 2.719,-6.061 6.061,-6.061c3.343,0 6.062,2.719 6.062,6.061c-0,3.342 -2.719,6.062 -6.062,6.062c-3.342,-0 -6.061,-2.72 -6.061,-6.062Z" style="fill:#636efa;fill-rule:nonzero;"/></g><g><path d="M2714.21,739.672c2.341,-0 4.245,1.905 4.245,4.246c0,2.342 -1.904,4.246 -4.245,4.246c-2.342,0 -4.247,-1.904 -4.247,-4.246c0,-2.341 1.905,-4.246 4.247,-4.246Z" style="fill:#636efa;fill-rule:nonzero;"/><path d="M2706.04,743.918c-0,4.51 3.655,8.165 8.165,8.165c4.509,0 8.165,-3.655 8.165,-8.165c0,-4.509 -3.656,-8.165 -8.165,-8.165c-4.51,0 -8.165,3.656 -8.165,8.165Zm2.103,0c-0,-3.342 2.72,-6.061 6.062,-6.061c3.342,0 6.061,2.719 6.061,6.061c-0,3.342 -2.72,6.062 -6.061,6.062c-3.343,-0 -6.062,-2.72 -6.062,-6.062Z" style="fill:#636efa;fill-rule:nonzero;"/></g><path d="M2633.98,743.918l4.591,0c-0,0 -0.271,-9.92 9.472,-9.92c9.743,0 10.105,9.92 10.105,9.92l46.176,0c0,0 0,-9.785 9.878,-9.785c9.878,0 10.105,9.785 10.105,9.785c8.776,0 10.262,0.611 10.532,-4.246c0.269,-4.858 -2.971,-4.999 -2.971,-4.999c-1.62,-12.287 -25.383,-12.962 -25.383,-12.962c-0,0 -14.312,-10.666 -23.088,-10.937c-8.777,-0.27 -20.118,-1.215 -28.895,1.756c-8.776,2.97 -17.417,18.902 -17.417,18.902c-5.265,3.781 -3.105,12.486 -3.105,12.486Zm90.274,-16.738c0,0 5.726,2.704 5.854,7.618c-0,-0 -4.187,0.769 -5.64,-0.898c-1.453,-1.666 -0.214,-6.72 -0.214,-6.72Zm-53.25,-13.835c2.648,0.016 5.282,-0.03 7.842,-0.035c11.339,-0.017 21.449,8.693 21.449,8.693l-29.291,0.052l0,-8.71l-0,-0Zm-23.906,8.753c5.877,-7.491 13.475,-8.626 21.166,-8.745l0,8.707l-21.166,0.038Z" style="fill:#636efa;fill-rule:nonzero;stroke:#636efa;stroke-width:4.17px;stroke-linejoin:round;stroke-miterlimit:2;"/></g></g><g transform="matrix(50,0,0,50,2633.54,728.829)"></g><text x="2604.55px" y="728.829px" style="font-family:'Lato-Regular', 'Lato', sans-serif;font-size:50px;fill:#636efa;">3</text></g><g><g><g><g><path d="M1851.16,717.771c2.341,0 4.246,1.906 4.246,4.247c0,2.341 -1.905,4.246 -4.246,4.246c-2.342,0 -4.247,-1.905 -4.247,-4.246c0,-2.341 1.905,-4.247 4.247,-4.247Z" style="fill:#636efa;fill-rule:nonzero;"/><path d="M1842.99,722.018c0,4.509 3.656,8.165 8.165,8.165c4.51,-0 8.165,-3.656 8.165,-8.165c0,-4.509 -3.655,-8.166 -8.165,-8.166c-4.509,0.001 -8.165,3.657 -8.165,8.166Zm2.104,-0c0,-3.342 2.719,-6.061 6.062,-6.061c3.342,-0 6.061,2.719 6.061,6.061c0,3.342 -2.719,6.061 -6.061,6.061c-3.343,0 -6.062,-2.719 -6.062,-6.061Z" style="fill:#636efa;fill-rule:nonzero;"/></g><g><path d="M1917.32,717.771c2.341,0 4.246,1.906 4.246,4.247c-0,2.341 -1.905,4.246 -4.246,4.246c-2.341,0 -4.246,-1.905 -4.246,-4.246c-0,-2.341 1.905,-4.247 4.246,-4.247Z" style="fill:#636efa;fill-rule:nonzero;"/><path d="M1909.15,722.018c0,4.509 3.656,8.165 8.165,8.165c4.51,-0 8.166,-3.656 8.166,-8.165c-0,-4.509 -3.656,-8.166 -8.166,-8.166c-4.51,0.001 -8.165,3.657 -8.165,8.166Zm2.103,-0c0,-3.342 2.72,-6.061 6.062,-6.061c3.342,-0 6.061,2.719 6.061,6.061c-0,3.342 -2.719,6.061 -6.061,6.061c-3.342,0 -6.062,-2.719 -6.062,-6.061Z" style="fill:#636efa;fill-rule:nonzero;"/></g><path d="M1837.09,722.018l4.591,-0c0,-0 -0.27,-9.92 9.473,-9.92c9.743,-0 10.105,9.92 10.105,9.92l46.176,-0c-0,-0 -0,-9.785 9.878,-9.785c9.878,-0 10.105,9.785 10.105,9.785c8.776,-0 10.261,0.611 10.531,-4.247c0.27,-4.857 -2.971,-4.999 -2.971,-4.999c-1.62,-12.286 -25.383,-12.961 -25.383,-12.961c0,-0 -14.312,-10.667 -23.088,-10.937c-8.776,-0.27 -20.118,-1.215 -28.894,1.755c-8.777,2.971 -17.418,18.903 -17.418,18.903c-5.265,3.781 -3.105,12.486 -3.105,12.486Zm90.275,-16.738c-0,-0 5.725,2.704 5.853,7.617c0,0 -4.187,0.769 -5.64,-0.897c-1.453,-1.666 -0.213,-6.72 -0.213,-6.72Zm-53.251,-13.836c2.649,0.016 5.283,-0.03 7.843,-0.034c11.339,-0.018 21.449,8.693 21.449,8.693l-29.291,0.052l-0,-8.711l-0.001,0Zm-23.905,8.753c5.876,-7.491 13.475,-8.625 21.166,-8.745l-0,8.707l-21.166,0.038Z" style="fill:#636efa;fill-rule:nonzero;stroke:#636efa;stroke-width:4.17px;stroke-linejoin:round;stroke-miterlimit:2;"/></g></g><g transform="matrix(50,0,0,50,1836.66,706.929)"></g><text x="1807.65px" y="706.929px" style="font-family:'Lato-Regular', 'Lato', sans-serif;font-size:50px;fill:#636efa;">1</text></g><g><g><g><g><path d="M2071.55,806.338c2.342,0 4.247,1.906 4.247,4.247c-0,2.341 -1.905,4.246 -4.247,4.246c-2.341,0 -4.246,-1.905 -4.246,-4.246c-0,-2.341 1.905,-4.247 4.246,-4.247Z" style="fill:#636efa;fill-rule:nonzero;"/><path d="M2063.38,810.585c0,4.509 3.656,8.165 8.165,8.165c4.509,0 8.165,-3.656 8.165,-8.165c-0,-4.509 -3.656,-8.165 -8.165,-8.165c-4.509,0 -8.165,3.656 -8.165,8.165Zm2.104,0c-0,-3.342 2.719,-6.061 6.061,-6.061c3.343,-0 6.062,2.719 6.062,6.061c-0,3.342 -2.719,6.061 -6.062,6.061c-3.342,0 -6.061,-2.719 -6.061,-6.061Z" style="fill:#636efa;fill-rule:nonzero;"/></g><g><path d="M2137.71,806.338c2.341,0 4.245,1.906 4.245,4.247c0,2.341 -1.904,4.246 -4.245,4.246c-2.342,0 -4.247,-1.905 -4.247,-4.246c0,-2.341 1.905,-4.247 4.247,-4.247Z" style="fill:#636efa;fill-rule:nonzero;"/><path d="M2129.54,810.585c-0,4.509 3.655,8.165 8.165,8.165c4.509,0 8.165,-3.656 8.165,-8.165c0,-4.509 -3.656,-8.165 -8.165,-8.165c-4.51,0 -8.165,3.656 -8.165,8.165Zm2.103,0c-0,-3.342 2.72,-6.061 6.062,-6.061c3.342,-0 6.061,2.719 6.061,6.061c-0,3.342 -2.72,6.061 -6.061,6.061c-3.343,0 -6.062,-2.719 -6.062,-6.061Z" style="fill:#636efa;fill-rule:nonzero;"/></g><path d="M2057.48,810.585l4.591,0c-0,0 -0.271,-9.92 9.472,-9.92c9.743,-0 10.105,9.92 10.105,9.92l46.176,0c0,0 0,-9.785 9.878,-9.785c9.878,-0 10.105,9.785 10.105,9.785c8.776,0 10.262,0.611 10.532,-4.247c0.269,-4.857 -2.971,-4.998 -2.971,-4.998c-1.62,-12.287 -25.383,-12.962 -25.383,-12.962c-0,-0 -14.312,-10.667 -23.088,-10.937c-8.777,-0.27 -20.118,-1.215 -28.895,1.755c-8.776,2.971 -17.417,18.903 -17.417,18.903c-5.265,3.781 -3.105,12.486 -3.105,12.486Zm90.274,-16.738c0,-0 5.726,2.704 5.854,7.618c-0,-0 -4.187,0.769 -5.64,-0.898c-1.453,-1.666 -0.214,-6.72 -0.214,-6.72Zm-53.25,-13.836c2.648,0.016 5.282,-0.03 7.842,-0.034c11.339,-0.018 21.449,8.693 21.449,8.693l-29.291,0.052l0,-8.711l-0,0Zm-23.906,8.753c5.877,-7.491 13.475,-8.625 21.166,-8.744l0,8.707l-21.166,0.037Z" style="fill:#636efa;fill-rule:nonzero;stroke:#636efa;stroke-width:4.17px;stroke-linejoin:round;stroke-miterlimit:2;"/></g></g><g transform="matrix(50,0,0,50,2057.04,795.496)"></g><text x="1999.05px" y="795.496px" style="font-family:'Lato-Regular', 'Lato', sans-serif;font-size:50px;fill:#636efa;">10</text></g><g transform="matrix(58.3333,0,0,58.3333,2147.31,535.756)"></g><text x="2104.32px" y="535.756px" style="font-family:'Lato-Regular', 'Lato', sans-serif;font-size:58.333px;">ja</text><g transform="matrix(58.3333,0,0,58.3333,2632.43,535.756)"></g><text x="2522.53px" y="535.756px" style="font-family:'Lato-Regular', 'Lato', sans-serif;font-size:58.333px;">nein</text><text x="2033.58px" y="240.417px" style="font-family:'Lato-Regular', 'Lato', sans-serif;font-size:58.333px;">P<tspan x="2068.06px 2088.1px " y="240.417px 240.417px ">re</tspan>is [EUR] &lt;= 16376.5</text><path d="M2219.9,460.917c-39.333,47.166 -83.333,100 -122.791,147.333" style="fill:none;fill-rule:nonzero;stroke:#000;stroke-width:4.17px;"/><path d="M2107.24,618.917l-37.875,22.666l15.458,-41.333l22.417,18.667Z" style="fill-rule:nonzero;stroke:#000;stroke-width:4.17px;"/><path d="M2451.24,460.917c31.291,37.083 65.5,77.666 98.125,116.333" style="fill:none;fill-rule:nonzero;stroke:#000;stroke-width:4.17px;"/><path d="M2560.53,567.917l15.709,41.25l-38,-22.459l22.291,-18.791Z" style="fill-rule:nonzero;stroke:#000;stroke-width:4.17px;"/></svg>